<svg width="223" height="44" viewBox="0 0 223 44" fill="none" xmlns="http://www.w3.org/2000/svg">
<path d="M0 0H90C101.046 0 110 8.95431 110 20V44H20C8.95431 44 0 35.0457 0 24V0Z" fill="#81E2DA"/>
<path d="M35.88 35V10.052H52.584V14.768H41.496V19.988H51.36V24.704H41.496V35H35.88ZM63.7519 35.36C62.1919 35.336 60.9199 35.168 59.9359 34.856C58.9759 34.544 58.2079 34.112 57.6319 33.56C57.0799 32.984 56.6959 32.3 56.4799 31.508C56.2879 30.692 56.1919 29.78 56.1919 28.772V7.928L61.5559 7.064V27.692C61.5559 28.172 61.5919 28.604 61.6639 28.988C61.7359 29.372 61.8679 29.696 62.0599 29.96C62.2759 30.224 62.5759 30.44 62.9599 30.608C63.3439 30.776 63.8599 30.884 64.5079 30.932L63.7519 35.36ZM66.6825 25.676C66.6825 23.996 66.9345 22.532 67.4385 21.284C67.9665 20.012 68.6505 18.956 69.4905 18.116C70.3305 17.276 71.2905 16.64 72.3705 16.208C73.4745 15.776 74.6025 15.56 75.7545 15.56C78.4425 15.56 80.5665 16.388 82.1265 18.044C83.6865 19.676 84.4665 22.088 84.4665 25.28C84.4665 25.592 84.4545 25.94 84.4305 26.324C84.4065 26.684 84.3825 27.008 84.3585 27.296H72.1905C72.3105 28.4 72.8265 29.276 73.7385 29.924C74.6505 30.572 75.8745 30.896 77.4105 30.896C78.3945 30.896 79.3545 30.812 80.2905 30.644C81.2505 30.452 82.0305 30.224 82.6305 29.96L83.3505 34.316C83.0625 34.46 82.6785 34.604 82.1985 34.748C81.7185 34.892 81.1785 35.012 80.5785 35.108C80.0025 35.228 79.3785 35.324 78.7065 35.396C78.0345 35.468 77.3625 35.504 76.6905 35.504C74.9865 35.504 73.4985 35.252 72.2265 34.748C70.9785 34.244 69.9345 33.56 69.0945 32.696C68.2785 31.808 67.6665 30.764 67.2585 29.564C66.8745 28.364 66.6825 27.068 66.6825 25.676ZM79.2825 23.624C79.2585 23.168 79.1745 22.724 79.0305 22.292C78.9105 21.86 78.7065 21.476 78.4185 21.14C78.1545 20.804 77.8065 20.528 77.3745 20.312C76.9665 20.096 76.4505 19.988 75.8265 19.988C75.2265 19.988 74.7105 20.096 74.2785 20.312C73.8465 20.504 73.4865 20.768 73.1985 21.104C72.9105 21.44 72.6825 21.836 72.5145 22.292C72.3705 22.724 72.2625 23.168 72.1905 23.624H79.2825ZM96.1299 21.824L99.8739 16.064H105.418L98.9379 25.172C100.378 26.972 101.686 28.724 102.862 30.428C104.038 32.132 104.974 33.656 105.67 35H99.9099C99.7179 34.64 99.4779 34.196 99.1899 33.668C98.9019 33.116 98.5779 32.552 98.2179 31.976C97.8579 31.376 97.4739 30.788 97.0659 30.212C96.6819 29.612 96.2979 29.072 95.9139 28.592C95.5539 29.048 95.1819 29.552 94.7979 30.104C94.4379 30.656 94.0899 31.22 93.7539 31.796C93.4179 32.348 93.0819 32.9 92.7459 33.452C92.4339 34.004 92.1579 34.52 91.9179 35H86.4459C86.7339 34.4 87.1299 33.692 87.6339 32.876C88.1379 32.06 88.6779 31.22 89.2539 30.356C89.8539 29.468 90.4779 28.592 91.1259 27.728C91.7739 26.84 92.4099 26.012 93.0339 25.244C91.9539 23.732 90.8739 22.208 89.7939 20.672C88.7139 19.112 87.6459 17.576 86.5899 16.064H92.3859L96.1299 21.824Z" fill="white"/>
<path d="M113.796 32.156C113.796 33.236 113.448 34.064 112.752 34.64C112.08 35.192 111.312 35.468 110.448 35.468C109.584 35.468 108.804 35.192 108.108 34.64C107.436 34.064 107.1 33.236 107.1 32.156C107.1 31.076 107.436 30.26 108.108 29.708C108.804 29.132 109.584 28.844 110.448 28.844C111.312 28.844 112.08 29.132 112.752 29.708C113.448 30.26 113.796 31.076 113.796 32.156ZM127.694 35.504C123.638 35.504 120.542 34.376 118.406 32.12C116.294 29.864 115.238 26.66 115.238 22.508C115.238 20.444 115.562 18.608 116.21 17C116.858 15.368 117.746 14 118.874 12.896C120.002 11.768 121.346 10.916 122.906 10.34C124.466 9.764 126.158 9.476 127.982 9.476C129.038 9.476 129.998 9.56 130.862 9.728C131.726 9.872 132.482 10.052 133.13 10.268C133.778 10.46 134.318 10.664 134.75 10.88C135.182 11.096 135.494 11.264 135.686 11.384L134.066 15.92C133.298 15.512 132.398 15.164 131.366 14.876C130.358 14.588 129.206 14.444 127.91 14.444C127.046 14.444 126.194 14.588 125.354 14.876C124.538 15.164 123.806 15.632 123.158 16.28C122.534 16.904 122.03 17.72 121.646 18.728C121.262 19.736 121.07 20.96 121.07 22.4C121.07 23.552 121.19 24.632 121.43 25.64C121.694 26.624 122.102 27.476 122.654 28.196C123.23 28.916 123.974 29.492 124.886 29.924C125.798 30.332 126.902 30.536 128.198 30.536C129.014 30.536 129.746 30.488 130.394 30.392C131.042 30.296 131.618 30.188 132.122 30.068C132.626 29.924 133.07 29.768 133.454 29.6C133.838 29.432 134.186 29.276 134.498 29.132L136.046 33.632C135.254 34.112 134.138 34.544 132.698 34.928C131.258 35.312 129.59 35.504 127.694 35.504ZM150.713 20.816C150.233 20.696 149.669 20.576 149.021 20.456C148.373 20.312 147.677 20.24 146.933 20.24C146.597 20.24 146.189 20.276 145.709 20.348C145.253 20.396 144.905 20.456 144.665 20.528V35H139.301V17.072C140.261 16.736 141.389 16.424 142.685 16.136C144.005 15.824 145.469 15.668 147.077 15.668C147.365 15.668 147.713 15.692 148.121 15.74C148.529 15.764 148.937 15.812 149.345 15.884C149.753 15.932 150.161 16.004 150.569 16.1C150.977 16.172 151.325 16.268 151.613 16.388L150.713 20.816ZM171.849 25.496C171.849 26.984 171.633 28.352 171.201 29.6C170.769 30.824 170.145 31.88 169.329 32.768C168.513 33.632 167.529 34.304 166.377 34.784C165.249 35.264 163.977 35.504 162.561 35.504C161.169 35.504 159.897 35.264 158.745 34.784C157.617 34.304 156.645 33.632 155.829 32.768C155.013 31.88 154.377 30.824 153.921 29.6C153.465 28.352 153.237 26.984 153.237 25.496C153.237 24.008 153.465 22.652 153.921 21.428C154.401 20.204 155.049 19.16 155.865 18.296C156.705 17.432 157.689 16.76 158.817 16.28C159.969 15.8 161.217 15.56 162.561 15.56C163.929 15.56 165.177 15.8 166.305 16.28C167.457 16.76 168.441 17.432 169.257 18.296C170.073 19.16 170.709 20.204 171.165 21.428C171.621 22.652 171.849 24.008 171.849 25.496ZM166.377 25.496C166.377 23.84 166.041 22.544 165.369 21.608C164.721 20.648 163.785 20.168 162.561 20.168C161.337 20.168 160.389 20.648 159.717 21.608C159.045 22.544 158.709 23.84 158.709 25.496C158.709 27.152 159.045 28.472 159.717 29.456C160.389 30.416 161.337 30.896 162.561 30.896C163.785 30.896 164.721 30.416 165.369 29.456C166.041 28.472 166.377 27.152 166.377 25.496ZM187.103 24.128C186.623 25.952 186.107 27.764 185.555 29.564C185.027 31.364 184.463 33.176 183.863 35H179.687C179.255 33.992 178.787 32.792 178.283 31.4C177.779 30.008 177.251 28.496 176.699 26.864C176.171 25.208 175.619 23.468 175.043 21.644C174.491 19.796 173.951 17.936 173.423 16.064H179.075C179.267 16.928 179.471 17.876 179.687 18.908C179.927 19.916 180.167 20.96 180.407 22.04C180.671 23.12 180.935 24.212 181.199 25.316C181.487 26.396 181.775 27.44 182.062 28.448C182.375 27.392 182.675 26.312 182.963 25.208C183.275 24.104 183.563 23.024 183.827 21.968C184.115 20.888 184.379 19.856 184.619 18.872C184.883 17.864 185.111 16.928 185.303 16.064H189.191C189.383 16.928 189.599 17.864 189.839 18.872C190.079 19.856 190.331 20.888 190.595 21.968C190.859 23.024 191.135 24.104 191.423 25.208C191.711 26.312 192.011 27.392 192.323 28.448C192.611 27.44 192.899 26.396 193.187 25.316C193.475 24.212 193.739 23.12 193.979 22.04C194.243 20.96 194.483 19.916 194.699 18.908C194.939 17.876 195.155 16.928 195.347 16.064H200.927C200.399 17.936 199.847 19.796 199.271 21.644C198.719 23.468 198.167 25.208 197.615 26.864C197.087 28.496 196.559 30.008 196.031 31.4C195.527 32.792 195.059 33.992 194.627 35H190.451C189.851 33.176 189.263 31.364 188.687 29.564C188.111 27.764 187.583 25.952 187.103 24.128ZM207.963 25.388C207.963 27.044 208.335 28.376 209.079 29.384C209.823 30.392 210.927 30.896 212.391 30.896C212.871 30.896 213.315 30.884 213.723 30.86C214.131 30.812 214.467 30.764 214.731 30.716V20.96C214.395 20.744 213.951 20.564 213.399 20.42C212.871 20.276 212.331 20.204 211.779 20.204C209.235 20.204 207.963 21.932 207.963 25.388ZM220.095 34.388C219.615 34.532 219.063 34.676 218.439 34.82C217.815 34.94 217.155 35.048 216.459 35.144C215.787 35.24 215.091 35.312 214.371 35.36C213.675 35.432 213.003 35.468 212.355 35.468C210.795 35.468 209.403 35.24 208.179 34.784C206.955 34.328 205.923 33.68 205.083 32.84C204.243 31.976 203.595 30.944 203.139 29.744C202.707 28.52 202.491 27.152 202.491 25.64C202.491 24.104 202.683 22.724 203.067 21.5C203.451 20.252 204.003 19.196 204.723 18.332C205.443 17.468 206.319 16.808 207.351 16.352C208.407 15.896 209.607 15.668 210.951 15.668C211.695 15.668 212.355 15.74 212.931 15.884C213.531 16.028 214.131 16.232 214.731 16.496V7.928L220.095 7.064V34.388Z" fill="#333333"/>
<circle cx="110" cy="32" r="4" fill="#333333"/>
<path fill-rule="evenodd" clip-rule="evenodd" d="M110 28C107.791 28 106 29.7908 106 32C106 34.2092 107.791 36 110 36V28Z" fill="white"/>
</svg>
